<svg width="2055" height="1775" viewBox="0 0 2055 1775" fill="none" xmlns="http://www.w3.org/2000/svg">
<path fill-rule="evenodd" clip-rule="evenodd" d="M2054.1 622V967.3C2054.1 1002 2025.9 1030.1 1991.2 1030.1H1893.4C1825.3 1452.2 1458.9 1774.5 1017.2 1774.5C575.6 1774.5 209.2 1452.2 141.1 1030.1H62.9C28.2 1030.1 0.0999756 1002 0.0999756 967.3V622C0.0999756 587.4 28.2 559.3 62.9 559.3H192.6C323.2 232.1 643.2 1 1017.2 1C1391.3 1 1711.3 232.1 1841.9 559.3H1991.2C2025.9 559.3 2054.1 587.4 2054.1 622ZM1640.6 522C1640.6 455.2 1586.4 401 1519.5 401H1137C1070.1 401 1015.9 455.2 1015.9 522C1015.9 455.2 961.7 401 894.8 401H512.2C445.4 401 391.1 455.2 391.1 522V962C391.1 1028.8 445.4 1083 512.2 1083H688.4V1367.5C688.4 1460.9 764.2 1536.7 857.6 1536.7H1185.1C1278.6 1536.7 1354.4 1460.9 1354.4 1367.5V1083H1519.5C1586.4 1083 1640.6 1028.8 1640.6 962V522Z" fill="white"/>
<path d="M1350.7 769.3H1204.9C1187.1 769.3 1172.8 783.7 1172.8 801.4V929.4C1172.8 947.1 1187.1 961.5 1204.9 961.5H1350.7C1368.4 961.5 1382.8 947.1 1382.8 929.4V801.4C1382.8 783.7 1368.4 769.3 1350.7 769.3Z" fill="white"/>
<path d="M813.4 769.3H667.7C649.9 769.3 635.5 783.7 635.5 801.4V929.4C635.5 947.1 649.9 961.5 667.7 961.5H813.4C831.2 961.5 845.6 947.1 845.6 929.4V801.4C845.6 783.7 831.2 769.3 813.4 769.3Z" fill="white"/>
</svg>
