<svg version="1.2" xmlns="http://www.w3.org/2000/svg" viewBox="0 0 2000 570" width="2000" height="570">
	<title>Layer 2</title>
	<defs>
		<linearGradient id="g1" x2="1" gradientUnits="userSpaceOnUse" gradientTransform="matrix(-355.299,659.191,-738.94,-398.282,1065.014,145.439)">
			<stop offset="0" stop-color="#00d95f"/>
			<stop offset="1" stop-color="#199250"/>
		</linearGradient>
		<linearGradient id="g2" x2="1" gradientUnits="userSpaceOnUse" gradientTransform="matrix(-271.637,503.973,-519.045,-279.761,824.812,106.816)">
			<stop offset="0" stop-color="#00d95f"/>
			<stop offset="1" stop-color="#199250"/>
		</linearGradient>
		<linearGradient id="g3" x2="1" gradientUnits="userSpaceOnUse" gradientTransform="matrix(-271.651,503.998,-519.116,-279.799,702.765,33.114)">
			<stop offset="0" stop-color="#00d95f"/>
			<stop offset="1" stop-color="#199250"/>
		</linearGradient>
	</defs>
	<style>
		.s0 { fill: url(#g1) } 
		.s1 { fill: url(#g2) } 
		.s2 { fill: url(#g3) } 
		.s3 { fill: #050623 } 
	</style>
	<g id="Layer 2">
		<g id="-e-full-logo">
			<g id="&lt;Group&gt;">
				<g id="&lt;Group&gt;">
					<path id="&lt;Compound Path&gt;" fill-rule="evenodd" class="s0" d="m933.9 187.2v103.9c0 10.4-8.5 18.8-19 18.8h-29.4c-20.6 127-130.9 224-264 224-133 0-243.4-97-264-224h-23.5c-10.5 0-18.9-8.4-18.9-18.8v-103.9c0-10.5 8.4-18.9 18.9-18.9h39.1c39.3-98.4 135.7-168 248.4-168 112.7 0 209.1 69.6 248.5 168h44.9c10.5 0 19 8.4 19 18.9zm-124.6-30.1c0-20.1-16.3-36.4-36.5-36.4h-115.2c-20.2 0-36.5 16.3-36.5 36.4 0-20.1-16.3-36.4-36.5-36.4h-115.2c-20.2 0-36.5 16.3-36.5 36.4v132.3c0 20.1 16.3 36.4 36.5 36.4h53v85.7c0 28.1 22.9 50.8 51 50.8h98.7c28.1 0 51-22.7 51-50.8v-85.7h49.7c20.2 0 36.5-16.3 36.5-36.4z"/>
					<path id="&lt;Path&gt;" class="s1" d="m722 231.5h-44c-5.3 0-9.6 4.3-9.6 9.6v38.5c0 5.4 4.3 9.7 9.6 9.7h44c5.3 0 9.6-4.3 9.6-9.7v-38.5c0-5.3-4.3-9.6-9.6-9.6z"/>
					<path id="&lt;Path&gt;" class="s2" d="m560.1 231.5h-43.9c-5.4 0-9.7 4.3-9.7 9.6v38.5c0 5.4 4.3 9.7 9.7 9.7h43.9c5.3 0 9.7-4.3 9.7-9.7v-38.5c0-5.3-4.4-9.6-9.7-9.6z"/>
				</g>
			</g>
			<g id="&lt;Group&gt;">
				<g id="&lt;Group&gt;">
					<path id="&lt;Compound Path&gt;" class="s3" d="m271.9 128.8v296.2h-58.1v-184.3l-55.4 90.8h-44.9l-55.4-90.8v184.3h-58v-296.2h58l77.9 127.7 77.8-127.7z"/>
					<path id="&lt;Compound Path&gt;" class="s3" d="m1202 425h-58.4l-112.2-184.3v184.3h-58.1v-296.2h58.1l112.2 184.3v-184.3h58.4v279.9z"/>
					<path id="&lt;Compound Path&gt;" class="s3" d="m1301.9 128.8v296.2h-58.1v-296.2zm73 148.3l112.2 147.9h-73l-112.2-147.9 112.2-148.3h73z"/>
					<path id="&lt;Compound Path&gt;" class="s3" d="m1711.3 247.7v58.4h-148.6v39c0 11.9 10.1 22 22 22h126.6v57.9h-127.5c-43.5 0-79.2-35.6-79.2-79v-138.2c0-43.5 35.7-79 79.2-79h127.5l-17.6 58.3h-109c-11.9 0-22 9.7-22 22v68l29.5-29.4z"/>
					<path id="&lt;Compound Path&gt;" class="s3" d="m1894.7 285.9v139.1h-58.5v-157.1l13.7-20.2h-39.2l-79.6-118.9h70l64.2 95.6 64.6-95.6h69.9z"/>
				</g>
			</g>
			<g id="&lt;Group&gt;">
				<path id="&lt;Compound Path&gt;" fill-rule="evenodd" class="s3" d="m1007.9 537.7v29.1h-30.6v-108h52.6c29 0 43.4 18.2 43.4 39.3 0 22.1-14.5 39.2-43.4 39.6zm0-25.8h21.9c8.5 0 12.9-6.2 12.9-13.3 0-7.1-4.5-13.6-12.9-13.6h-21.9z"/>
				<path id="&lt;Compound Path&gt;" fill-rule="evenodd" class="s3" d="m1172.1 569.5c-35.5 0-60.2-20.6-60.2-56.7 0-35.5 24.7-56.7 60.2-56.7 35.5 0 60.1 20.7 60.1 56.7 0 36.1-24.6 56.7-60.1 56.7zm0-87.3c-17.5 0-29.6 12.7-29.6 30.6 0 18.1 12.2 30.6 29.6 30.6 17.9 0 29.5-12.7 29.5-30.6 0-18.5-11.6-30.6-29.5-30.6z"/>
				<path id="&lt;Compound Path&gt;" class="s3" d="m1309.8 458.8v82.1h51.8v25.9h-82.5v-108z"/>
				<path id="&lt;Compound Path&gt;" class="s3" d="m1436.6 458.8v82.1h51.9v25.9h-82.5v-108z"/>
			</g>
		</g>
	</g>
</svg>