<svg width="2000" height="570" viewBox="0 0 2000 570" fill="none" xmlns="http://www.w3.org/2000/svg">
<g clip-path="url(#clip0_1_2)">
<path fill-rule="evenodd" clip-rule="evenodd" d="M933.9 187.2V291.1C933.9 301.5 925.4 309.9 914.9 309.9H885.5C864.9 436.9 754.6 533.9 621.5 533.9C488.5 533.9 378.1 436.9 357.5 309.9H334C323.5 309.9 315.1 301.5 315.1 291.1V187.2C315.1 176.7 323.5 168.3 334 168.3H373.1C412.4 69.9 508.8 0.300003 621.5 0.300003C734.2 0.300003 830.6 69.9 870 168.3H914.9C925.4 168.3 933.9 176.7 933.9 187.2ZM809.3 157.1C809.3 137 793 120.7 772.8 120.7H657.6C637.4 120.7 621.1 137 621.1 157.1C621.1 137 604.8 120.7 584.6 120.7H469.4C449.2 120.7 432.9 137 432.9 157.1V289.4C432.9 309.5 449.2 325.8 469.4 325.8H522.4V411.5C522.4 439.6 545.3 462.3 573.4 462.3H672.1C700.2 462.3 723.1 439.6 723.1 411.5V325.8H772.8C793 325.8 809.3 309.5 809.3 289.4V157.1Z" fill="#00d95f"/>
<path d="M722 231.5H678C672.7 231.5 668.4 235.8 668.4 241.1V279.6C668.4 285 672.7 289.3 678 289.3H722C727.3 289.3 731.6 285 731.6 279.6V241.1C731.6 235.8 727.3 231.5 722 231.5Z" fill="#00d95f"/>
<path d="M560.1 231.5H516.2C510.8 231.5 506.5 235.8 506.5 241.1V279.6C506.5 285 510.8 289.3 516.2 289.3H560.1C565.4 289.3 569.8 285 569.8 279.6V241.1C569.8 235.8 565.4 231.5 560.1 231.5Z" fill="#00d95f"/>
<path d="M271.9 128.8V425H213.8V240.7L158.4 331.5H113.5L58.1 240.7V425H0.0999756V128.8H58.1L136 256.5L213.8 128.8H271.9Z" fill="#00d95f"/>
<path d="M1202 425H1143.6L1031.4 240.7V425H973.3V128.8H1031.4L1143.6 313.1V128.8H1202V408.7V425Z" fill="#00d95f"/>
<path d="M1301.9 128.8V425H1243.8V128.8H1301.9ZM1374.9 277.1L1487.1 425H1414.1L1301.9 277.1L1414.1 128.8H1487.1L1374.9 277.1Z" fill="#00d95f"/>
<path d="M1711.3 247.7V306.1H1562.7V345.1C1562.7 357 1572.8 367.1 1584.7 367.1H1711.3V425H1583.8C1540.3 425 1504.6 389.4 1504.6 346V207.8C1504.6 164.3 1540.3 128.8 1583.8 128.8H1711.3L1693.7 187.1H1584.7C1572.8 187.1 1562.7 196.8 1562.7 209.1V277.1L1592.2 247.7H1711.3Z" fill="#00d95f"/>
<path d="M1894.7 285.9V425H1836.2V267.9L1849.9 247.7H1810.7L1731.1 128.8H1801.1L1865.3 224.4L1929.9 128.8H1999.8L1894.7 285.9Z" fill="#00d95f"/>
<path fill-rule="evenodd" clip-rule="evenodd" d="M1007.9 537.7V566.8H977.3V458.8H1029.9C1058.9 458.8 1073.3 477 1073.3 498.1C1073.3 520.2 1058.8 537.3 1029.9 537.7H1007.9ZM1007.9 511.9H1029.8C1038.3 511.9 1042.7 505.7 1042.7 498.6C1042.7 491.5 1038.2 485 1029.8 485H1007.9V511.9Z" fill="#00d95f"/>
<path fill-rule="evenodd" clip-rule="evenodd" d="M1172.1 569.5C1136.6 569.5 1111.9 548.9 1111.9 512.8C1111.9 477.3 1136.6 456.1 1172.1 456.1C1207.6 456.1 1232.2 476.8 1232.2 512.8C1232.2 548.9 1207.6 569.5 1172.1 569.5ZM1172.1 482.2C1154.6 482.2 1142.5 494.9 1142.5 512.8C1142.5 530.9 1154.7 543.4 1172.1 543.4C1190 543.4 1201.6 530.7 1201.6 512.8C1201.6 494.3 1190 482.2 1172.1 482.2Z" fill="#00d95f"/>
<path d="M1309.8 458.8V540.9H1361.6V566.8H1279.1V458.8H1309.8Z" fill="#00d95f"/>
<path d="M1436.6 458.8V540.9H1488.5V566.8H1406V458.8H1436.6Z" fill="#00d95f"/>
</g>
<defs>
<clipPath id="clip0_1_2">
<rect width="2000" height="570" fill="white"/>
</clipPath>
</defs>
</svg>
